<svg width="161" height="27" viewBox="0 0 161 27" fill="none" xmlns="http://www.w3.org/2000/svg">
<path d="M72.9511 8.49603C73.0148 8.4897 73.0791 8.50022 73.1375 8.52654C73.1959 8.55285 73.2464 8.59405 73.284 8.64603C73.3175 8.69839 73.3353 8.75931 73.3353 8.82153C73.3353 8.88375 73.3175 8.94466 73.284 8.99703L66.4843 25.797C66.4336 25.9567 66.3294 26.0938 66.1892 26.185C66.049 26.2762 65.8817 26.3158 65.7157 26.297H64.4995C64.3261 26.3214 64.1495 26.2891 63.9959 26.205C63.8422 26.1209 63.7196 25.9894 63.6461 25.83L56.8803 9.00303C56.8573 8.94543 56.8484 8.88316 56.8543 8.8214C56.8602 8.75965 56.8807 8.7002 56.9142 8.64803C56.9518 8.59605 57.0023 8.55485 57.0608 8.52854C57.1192 8.50222 57.1834 8.4917 57.2472 8.49802H59.3217C59.4398 8.49404 59.5567 8.52387 59.6586 8.58403C59.7555 8.6526 59.8259 8.75253 59.858 8.86703L65.1166 22.067C65.2741 22.495 65.4535 22.495 65.6549 22.033L70.9005 8.86203C70.9301 8.75054 70.9943 8.65142 71.0839 8.57903C71.1794 8.51836 71.291 8.48836 71.4039 8.49303L72.9511 8.49603Z" fill="#0F66CC"/>
<path d="M105.273 26.302C103.834 26.3118 102.399 26.1364 101.005 25.78C99.7575 25.472 98.5689 24.962 97.4856 24.27C96.5392 23.6762 95.7248 22.8932 95.0931 21.97C94.9925 21.8017 94.9446 21.6069 94.9555 21.411C95.0089 21.2237 95.1297 21.063 95.2944 20.96L97.8774 19.176C98.0689 19.0417 98.2978 18.9717 98.5313 18.976C98.7102 19.0056 98.8712 19.1021 98.9819 19.246C99.4594 19.8542 99.9935 20.4153 100.577 20.922C101.107 21.3768 101.73 21.7102 102.401 21.899C103.211 22.1152 104.046 22.2162 104.883 22.199C106.082 22.2508 107.276 22.015 108.366 21.511C108.765 21.3191 109.099 21.0137 109.327 20.6326C109.555 20.2516 109.665 19.8118 109.646 19.368C109.649 18.9989 109.557 18.6353 109.377 18.313C109.166 17.9617 108.874 17.6669 108.524 17.454C108.007 17.1401 107.45 16.8973 106.868 16.732L101.804 15.291C100.607 14.9657 99.4826 14.4171 98.4885 13.674C97.6337 13.0239 96.9406 12.1839 96.4638 11.22C96.0101 10.301 95.7767 9.28846 95.7819 8.26299C95.7655 6.88621 96.1793 5.53884 96.9652 4.40999C97.8265 3.21037 98.9986 2.27007 100.355 1.69099C101.936 0.999276 103.648 0.658174 105.373 0.690989C106.577 0.679837 107.777 0.824019 108.945 1.11999C109.989 1.38689 110.993 1.79247 111.929 2.32599C112.775 2.80067 113.516 3.44142 114.11 4.20999C114.2 4.32419 114.268 4.45493 114.309 4.59499C114.358 4.73999 114.309 4.89499 114.11 5.04999L111.295 7.13799C111.244 7.18063 111.184 7.21055 111.119 7.22532C111.054 7.24009 110.986 7.23929 110.922 7.22299C110.752 7.15076 110.598 7.04654 110.467 6.91599C109.933 6.3452 109.316 5.8587 108.637 5.47299C107.676 4.99379 106.607 4.77423 105.535 4.83599C104.435 4.75473 103.337 5.01707 102.391 5.58699C102.071 5.79644 101.808 6.08291 101.626 6.42034C101.444 6.75777 101.35 7.13545 101.351 7.51899C101.357 7.81475 101.425 8.10588 101.55 8.37399C101.731 8.74483 102.009 9.05936 102.354 9.28399C102.878 9.62954 103.454 9.88944 104.059 10.054L109.354 11.564C111.107 11.9419 112.685 12.8938 113.839 14.27C114.778 15.5118 115.276 17.0328 115.253 18.591C115.288 20.0449 114.866 21.4731 114.047 22.673C113.18 23.8843 111.982 24.8187 110.599 25.364C109.007 25.9868 107.314 26.307 105.606 26.308C105.495 26.306 105.385 26.304 105.273 26.302ZM128.194 26.302C126.112 26.3504 124.061 25.8023 122.279 24.722C120.581 23.6528 119.226 22.1141 118.379 20.291C117.423 18.1945 116.954 15.9078 117.007 13.603C116.948 11.2377 117.442 8.89143 118.449 6.75199C119.338 4.90327 120.739 3.35091 122.485 2.28099C124.312 1.19601 126.404 0.645243 128.526 0.690989C130.203 0.66121 131.864 1.01696 133.383 1.73099C134.718 2.354 135.9 3.26182 136.849 4.39099C137.686 5.37153 138.257 6.55171 138.508 7.81799C138.596 8.03127 138.613 8.2672 138.557 8.49099C138.509 8.56045 138.445 8.61767 138.371 8.65811C138.297 8.69855 138.214 8.7211 138.13 8.72399L133.709 9.39099C133.51 9.39099 133.379 9.34599 133.325 9.25799C133.257 9.12939 133.207 8.99259 133.174 8.85099C133.048 8.12901 132.769 7.44257 132.356 6.83799C131.918 6.19229 131.324 5.66855 130.63 5.31579C129.935 4.96303 129.163 4.79279 128.385 4.82099C127.374 4.79091 126.381 5.09249 125.556 5.67999C124.68 6.38625 124.047 7.35064 123.748 8.43699C123.286 10.0402 123.076 11.706 123.127 13.374C123.071 15.1103 123.292 16.8445 123.781 18.511C124.094 19.6113 124.751 20.5817 125.656 21.279C126.521 21.8637 127.546 22.1639 128.588 22.138C129.233 22.1498 129.873 22.0406 130.478 21.816C131.488 21.4316 132.325 20.6926 132.834 19.736C133.077 19.285 133.258 18.8034 133.373 18.304L133.439 17.331C133.531 16.998 133.412 16.831 133.102 16.831H129.057C128.984 16.8437 128.909 16.8387 128.838 16.8162C128.768 16.7937 128.704 16.7546 128.651 16.702C128.6 16.6489 128.562 16.5844 128.54 16.5136C128.518 16.4429 128.513 16.368 128.526 16.295V13.77C128.526 13.459 128.705 13.3 129.064 13.3L138.008 13.333H138.018C138.632 12.332 139.474 11.4914 140.475 10.88C140.129 9.29262 140.282 7.63643 140.914 6.14016C141.546 4.6439 142.625 3.38139 144.003 2.52699C146.641 0.890989 148.427 1.26799 150.559 1.65999C153.506 2.33544 156.581 2.18811 159.451 1.23399C159.579 1.19555 159.714 1.18893 159.846 1.21472C159.977 1.2405 160.1 1.29791 160.204 1.38199C160.307 1.46689 160.389 1.5753 160.442 1.69825C160.496 1.82121 160.519 1.95515 160.511 2.08899C160.471 2.46599 159.544 11.316 152.231 15.861C151.355 16.406 150.382 16.7726 149.365 16.9396C148.349 17.1067 147.309 17.0709 146.306 16.8344C145.304 16.5979 144.357 16.1653 143.521 15.5614C142.685 14.9575 141.977 14.1941 141.435 13.315C141.278 13.053 141.135 12.7826 141.008 12.505C140.05 13.1387 139.333 14.0765 138.971 15.168V25.468C138.976 25.5358 138.967 25.604 138.945 25.6683C138.923 25.7326 138.888 25.7917 138.842 25.842C138.793 25.8892 138.735 25.9255 138.671 25.9486C138.607 25.9716 138.538 25.981 138.471 25.976H137.402C137.237 25.9799 137.074 25.9388 136.93 25.857C136.766 25.7467 136.63 25.5998 136.532 25.428L135.558 23.011C135.552 22.9827 135.536 22.9572 135.514 22.939C135.492 22.9208 135.464 22.9109 135.435 22.911C135.378 22.911 135.309 22.966 135.221 23.077C134.766 23.6231 134.262 24.1253 133.714 24.577C133.044 25.1166 132.285 25.536 131.472 25.817C130.496 26.1466 129.474 26.3154 128.444 26.317C128.361 26.305 128.277 26.304 128.194 26.302ZM144.877 3.93599C143.85 4.57206 143.031 5.49619 142.522 6.59406C142.013 7.69192 141.836 8.91535 142.013 10.113C144.939 8.28799 147.596 8.64699 149.958 9.00299C153.522 9.54299 156.437 10.084 158.66 3.14799C155.908 3.86297 153.024 3.90242 150.253 3.26299C149.498 3.09247 148.728 2.99204 147.955 2.96299C146.856 2.97826 145.786 3.31656 144.877 3.93599ZM93.0315 25.965H76.1513C75.6618 25.965 75.4136 25.732 75.4136 25.265V1.67499C75.4136 1.24499 75.593 1.03799 75.9529 1.03799H92.8331C93.1681 1.03799 93.3316 1.22299 93.3316 1.60399L93.2977 4.63199C93.321 4.79585 93.2787 4.96233 93.1801 5.09499C93.0834 5.22409 92.9403 5.31021 92.7813 5.33499C92.7217 5.34248 92.6614 5.34248 92.6019 5.33499H81.9302C81.5015 5.33499 81.2922 5.51699 81.2922 5.87499V10.745C81.2922 11.126 81.4577 11.315 81.7906 11.315H88.8685C89.2493 11.315 89.4397 11.497 89.4397 11.855V15.079C89.441 15.2034 89.3975 15.3242 89.3171 15.419C89.2603 15.4704 89.1928 15.5086 89.1196 15.5308C89.0464 15.5531 88.9692 15.559 88.8935 15.548H81.7448C81.4348 15.548 81.2773 15.681 81.2773 15.948V21.241C81.2773 21.533 81.3999 21.67 81.6491 21.67H93.0963C93.4951 21.67 93.6944 21.836 93.6944 22.17V25.36C93.7038 25.5169 93.6508 25.6712 93.5469 25.789C93.4237 25.8978 93.2655 25.9585 93.1013 25.96C93.0781 25.9629 93.0549 25.9646 93.0315 25.965Z" fill="url(#paint0_linear_2_45)"/>
<path d="M19.6558 13.6289C19.7321 11.3387 19.2808 9.06169 18.3369 6.97493C17.4375 5.17079 15.9554 3.72555 14.132 2.87493C11.7647 1.84174 9.20144 1.33839 6.62052 1.39993H1.39883C1.26202 1.3877 1.12583 1.4293 1.01902 1.51593C0.942444 1.60524 0.900351 1.71914 0.900391 1.83693V25.7569C0.900391 26.1169 1.0579 26.2959 1.36992 26.2959H6.29154C8.86606 26.3814 11.4278 25.8976 13.7951 24.8789C15.7064 24.0153 17.2665 22.523 18.2173 20.6489C19.2451 18.4558 19.7381 16.0489 19.6558 13.6269V13.6289ZM15.2167 19.6789C14.5116 21.1336 13.2957 22.2757 11.8023 22.8859C9.87728 23.6141 7.82726 23.9516 5.77117 23.8789H4.48918C4.22002 23.8789 4.09042 23.7549 4.09042 23.5059V4.29093C4.09042 3.97393 4.20108 3.81993 4.42338 3.81993H5.93865C7.92286 3.75722 9.9014 4.06511 11.7734 4.72793C13.2543 5.28896 14.4722 6.38552 15.1877 7.80193C16.0225 9.68478 16.4055 11.7377 16.3062 13.7959C16.3876 15.8141 16.0152 17.8248 15.2167 19.6789Z" fill="#0F66CC"/>
<path d="M37.2298 12.032C36.6244 10.732 35.6468 9.64235 34.4216 8.90197C33.1237 8.15829 31.6471 7.78643 30.1529 7.82697C28.642 7.80539 27.154 8.19931 25.8504 8.96597C24.5496 9.73918 23.4903 10.8618 22.7919 12.207C22.0114 13.764 21.6313 15.492 21.6864 17.234C21.6521 18.8811 22.0323 20.5103 22.7919 21.971C23.4851 23.293 24.5277 24.398 25.8055 25.165C27.1364 25.9394 28.6534 26.3334 30.1918 26.304C31.2106 26.3217 32.2263 26.1869 33.2054 25.904C34.0871 25.6424 34.9111 25.2152 35.6338 24.645C36.4094 24.0211 37.0822 23.2787 37.6276 22.445C37.7851 22.245 37.7641 22.085 37.5638 21.974L36.1552 21.25C36.0775 21.2152 35.9929 21.1991 35.9079 21.203C35.8222 21.2329 35.7456 21.2845 35.6856 21.353C35.1228 22.2323 34.3474 22.9547 33.4317 23.453C32.5063 23.9254 31.4792 24.162 30.441 24.142C29.3975 24.1554 28.3711 23.8751 27.4783 23.333C26.6033 22.8022 25.8776 22.0564 25.3699 21.166C24.8448 20.2546 24.5735 19.2185 24.5843 18.166C24.581 18.0453 24.6088 17.9257 24.6651 17.819C24.6843 17.7765 24.7147 17.7402 24.753 17.7138C24.7913 17.6873 24.836 17.6718 24.8824 17.669H37.7223C37.9914 17.669 38.1489 17.592 38.1788 17.434C38.2094 17.2788 38.2251 17.1211 38.2257 16.963C38.2769 15.2643 37.936 13.5767 37.2298 12.032ZM35.3178 15.74C35.1729 15.8135 35.0093 15.8417 34.8483 15.821H24.6631C24.6587 14.8222 24.876 13.835 25.2991 12.931C25.7105 12.0266 26.3602 11.2521 27.1782 10.691C28.0836 10.0979 29.149 9.79906 30.2297 9.83497C31.2166 9.80606 32.1893 10.0761 33.021 10.61C33.784 11.1159 34.3973 11.8184 34.7964 12.644C35.2091 13.4835 35.421 14.4079 35.4155 15.344C35.4358 15.4837 35.4007 15.6259 35.3178 15.74Z" fill="#0F66CC"/>
<path d="M54.9636 8.49605C55.0273 8.48973 55.0916 8.50025 55.15 8.52656C55.2084 8.55288 55.2589 8.59407 55.2966 8.64605C55.3301 8.69842 55.3479 8.75933 55.3479 8.82155C55.3479 8.88377 55.3301 8.94468 55.2966 8.99705L48.4968 25.7971C48.4462 25.9567 48.3419 26.0939 48.2017 26.185C48.0616 26.2762 47.8942 26.3158 47.7282 26.2971H46.521C46.3476 26.3214 46.1711 26.2891 46.0174 26.205C45.8637 26.1209 45.7411 25.9895 45.6677 25.83L38.9188 9.00505C38.8959 8.94744 38.887 8.88517 38.8929 8.82343C38.8988 8.76169 38.9193 8.70225 38.9526 8.65005C38.9903 8.59807 39.0408 8.55688 39.0992 8.53056C39.1576 8.50425 39.2219 8.49373 39.2856 8.50005H41.3601C41.4771 8.49588 41.5927 8.52574 41.6931 8.58605C41.7917 8.65416 41.8641 8.754 41.8984 8.86905L47.157 22.069C47.3145 22.497 47.494 22.497 47.6953 22.035L52.92 8.86405C52.9497 8.75259 53.0139 8.65348 53.1034 8.58105C53.1989 8.52039 53.3105 8.49038 53.4234 8.49505L54.9636 8.49605Z" fill="#0F66CC"/>
<defs>
<linearGradient id="paint0_linear_2_45" x1="75.4136" y1="26.317" x2="138.642" y2="26.317" gradientUnits="userSpaceOnUse">
<stop stop-color="#0F66CC"/>
<stop offset="0.421" stop-color="#1E8EFC"/>
<stop offset="1" stop-color="#B5BF50"/>
</linearGradient>
</defs>
</svg>
