<svg width="10" height="16" viewBox="0 0 10 16" fill="none" xmlns="http://www.w3.org/2000/svg">
<path id="Vector" d="M9.24776 15.6838C9.45856 15.473 9.56396 15.2234 9.56396 14.935C9.56396 14.6466 9.45856 14.3973 9.24776 14.1871L3.07121 8.01054L9.26884 1.81291C9.46559 1.61616 9.56396 1.37022 9.56396 1.0751C9.56396 0.779974 9.45856 0.527009 9.24776 0.316206C9.03696 0.105402 8.78736 0 8.49898 0C8.21061 0 7.96129 0.105402 7.75105 0.316206L0.668048 7.42029C0.583727 7.50461 0.523859 7.59596 0.488444 7.69433C0.453029 7.79271 0.435602 7.89811 0.436165 8.01054C0.436165 8.12297 0.453872 8.22837 0.489286 8.32675C0.524702 8.42512 0.584289 8.51647 0.668048 8.60079L7.77213 15.7049C7.96888 15.9016 8.21145 16 8.49983 16C8.78821 16 9.03752 15.8946 9.24776 15.6838Z" fill="black" fill-opacity="0.5"/>
</svg>
