<svg width="10" height="16" viewBox="0 0 10 16" fill="none" xmlns="http://www.w3.org/2000/svg">
<path id="Vector" d="M0.752241 15.6838C0.541437 15.473 0.436035 15.2234 0.436035 14.935C0.436035 14.6466 0.541437 14.3973 0.752241 14.1871L6.92879 8.01054L0.73116 1.81291C0.53441 1.61616 0.436035 1.37022 0.436035 1.0751C0.436035 0.779974 0.541437 0.527009 0.752241 0.316206C0.963044 0.105402 1.21264 0 1.50102 0C1.78939 0 2.03871 0.105402 2.24895 0.316206L9.33195 7.42029C9.41627 7.50461 9.47614 7.59596 9.51156 7.69433C9.54697 7.79271 9.5644 7.89811 9.56384 8.01054C9.56384 8.12297 9.54613 8.22837 9.51071 8.32675C9.4753 8.42512 9.41571 8.51647 9.33195 8.60079L2.22787 15.7049C2.03112 15.9016 1.78855 16 1.50017 16C1.21179 16 0.962482 15.8946 0.752241 15.6838Z" fill="black"/>
</svg>
